<svg id="visual" viewBox="0 0 900 600" width="900" height="600" xmlns="http://www.w3.org/2000/svg" xmlns:xlink="http://www.w3.org/1999/xlink" version="1.1"><rect x="0" y="0" width="900" height="600" fill="#001220"></rect><defs><linearGradient id="grad1_0" x1="33.3%" y1="0%" x2="100%" y2="100%"><stop offset="20%" stop-color="#001220" stop-opacity="1"></stop><stop offset="80%" stop-color="#001220" stop-opacity="1"></stop></linearGradient></defs><defs><linearGradient id="grad2_0" x1="0%" y1="0%" x2="66.7%" y2="100%"><stop offset="20%" stop-color="#001220" stop-opacity="1"></stop><stop offset="80%" stop-color="#001220" stop-opacity="1"></stop></linearGradient></defs><g transform="translate(900, 0)"><path d="M0 486.7C-59.9 473.8 -119.8 460.9 -182.5 440.7C-245.3 420.5 -311 393 -344.2 344.2C-377.4 295.3 -378 225.1 -396.3 164.2C-414.7 103.2 -450.7 51.6 -486.7 0L0 0Z" fill="#917fb3"></path></g><g transform="translate(0, 600)"><path d="M0 -486.7C61.9 -479.4 123.9 -472 186.3 -449.7C248.7 -427.4 311.5 -390.2 335.9 -335.9C360.3 -281.5 346.2 -210 364.9 -151.2C383.7 -92.3 435.2 -46.2 486.7 0L0 0Z" fill="#917fb3"></path></g></svg>