<svg id="visual" viewBox="0 0 900 600" width="900" height="600" xmlns="http://www.w3.org/2000/svg" xmlns:xlink="http://www.w3.org/1999/xlink" version="1.1"><path d="M0 209L21.5 215.5C43 222 86 235 128.8 231C171.7 227 214.3 206 257.2 190.8C300 175.7 343 166.3 385.8 166.8C428.7 167.3 471.3 177.7 514.2 192.7C557 207.7 600 227.3 642.8 233C685.7 238.7 728.3 230.3 771.2 225C814 219.7 857 217.3 878.5 216.2L900 215L900 0L878.5 0C857 0 814 0 771.2 0C728.3 0 685.7 0 642.8 0C600 0 557 0 514.2 0C471.3 0 428.7 0 385.8 0C343 0 300 0 257.2 0C214.3 0 171.7 0 128.8 0C86 0 43 0 21.5 0L0 0Z" fill="#e9e5ef"></path><path d="M0 157L21.5 153.2C43 149.3 86 141.7 128.8 138.5C171.7 135.3 214.3 136.7 257.2 140.8C300 145 343 152 385.8 153.5C428.7 155 471.3 151 514.2 148.8C557 146.7 600 146.3 642.8 150.2C685.7 154 728.3 162 771.2 167.3C814 172.7 857 175.3 878.5 176.7L900 178L900 0L878.5 0C857 0 814 0 771.2 0C728.3 0 685.7 0 642.8 0C600 0 557 0 514.2 0C471.3 0 428.7 0 385.8 0C343 0 300 0 257.2 0C214.3 0 171.7 0 128.8 0C86 0 43 0 21.5 0L0 0Z" fill="#d3cbe0"></path><path d="M0 111L21.5 118.5C43 126 86 141 128.8 147.8C171.7 154.7 214.3 153.3 257.2 146.3C300 139.3 343 126.7 385.8 119.5C428.7 112.3 471.3 110.7 514.2 112.8C557 115 600 121 642.8 128C685.7 135 728.3 143 771.2 143.5C814 144 857 137 878.5 133.5L900 130L900 0L878.5 0C857 0 814 0 771.2 0C728.3 0 685.7 0 642.8 0C600 0 557 0 514.2 0C471.3 0 428.7 0 385.8 0C343 0 300 0 257.2 0C214.3 0 171.7 0 128.8 0C86 0 43 0 21.5 0L0 0Z" fill="#bdb1d1"></path><path d="M0 86L21.5 88.7C43 91.3 86 96.7 128.8 96.5C171.7 96.3 214.3 90.7 257.2 91.7C300 92.7 343 100.3 385.8 100.7C428.7 101 471.3 94 514.2 89.3C557 84.7 600 82.3 642.8 79C685.7 75.7 728.3 71.3 771.2 75C814 78.7 857 90.3 878.5 96.2L900 102L900 0L878.5 0C857 0 814 0 771.2 0C728.3 0 685.7 0 642.8 0C600 0 557 0 514.2 0C471.3 0 428.7 0 385.8 0C343 0 300 0 257.2 0C214.3 0 171.7 0 128.8 0C86 0 43 0 21.5 0L0 0Z" fill="#a798c2"></path><path d="M0 31L21.5 37.7C43 44.3 86 57.7 128.8 60.3C171.7 63 214.3 55 257.2 51.7C300 48.3 343 49.7 385.8 49.7C428.7 49.7 471.3 48.3 514.2 47.3C557 46.3 600 45.7 642.8 45.5C685.7 45.3 728.3 45.7 771.2 50C814 54.3 857 62.7 878.5 66.8L900 71L900 0L878.5 0C857 0 814 0 771.2 0C728.3 0 685.7 0 642.8 0C600 0 557 0 514.2 0C471.3 0 428.7 0 385.8 0C343 0 300 0 257.2 0C214.3 0 171.7 0 128.8 0C86 0 43 0 21.5 0L0 0Z" fill="#917fb3"></path></svg>